<?xml version="1.0" standalone="no"?>
<!DOCTYPE svg PUBLIC "-//W3C//DTD SVG 20010904//EN"
 "http://www.w3.org/TR/2001/REC-SVG-20010904/DTD/svg10.dtd">
<svg version="1.0" xmlns="http://www.w3.org/2000/svg"
 width="1063.000000pt" height="1280.000000pt" viewBox="0 0 1063.000000 1280.000000"
 preserveAspectRatio="xMidYMid meet">
<g transform="translate(0.000000,1280.000000) scale(0.100000,-0.100000)"
fill="#748B75" stroke="none">
<path d="M4010 12779 c-266 -46 -459 -145 -635 -324 -135 -136 -227 -296 -282
-486 -24 -86 -27 -111 -29 -289 -2 -211 -1 -208 -56 -169 -47 34 -189 96 -263
115 -101 26 -284 23 -390 -5 -263 -71 -464 -253 -561 -509 -17 -45 -34 -85
-37 -89 -4 -3 -42 10 -84 30 -128 60 -189 72 -353 72 -124 0 -156 -3 -220 -23
-316 -99 -534 -351 -581 -674 -20 -136 3 -302 57 -427 13 -29 24 -57 24 -62 0
-5 -24 -20 -54 -33 -221 -98 -411 -317 -485 -560 -27 -89 -61 -280 -61 -347 0
-108 50 -357 101 -505 203 -589 723 -1109 1309 -1307 156 -53 285 -78 445 -84
150 -6 235 3 376 39 l86 22 55 -37 c31 -20 103 -59 162 -87 129 -62 179 -106
340 -300 66 -80 157 -181 202 -225 l82 -80 16 -205 c36 -469 41 -587 41 -1155
0 -574 -5 -715 -41 -1100 -102 -1109 -366 -1975 -790 -2598 -41 -59 -74 -116
-74 -126 0 -32 49 -164 99 -266 226 -460 642 -782 1176 -908 543 -129 1198
-63 1999 200 l169 55 -7 127 c-66 1285 4 2618 190 3631 116 631 289 1207 476
1580 l53 105 155 7 c185 8 384 36 560 78 l129 32 73 -74 c134 -134 259 -188
449 -196 138 -5 205 9 324 67 137 67 247 185 315 336 16 36 31 65 33 65 2 0
47 -20 99 -45 143 -68 257 -95 420 -102 154 -6 246 4 373 44 174 54 316 142
450 278 288 292 377 686 253 1114 -10 35 -10 45 -1 48 40 14 178 116 239 177
157 158 247 346 275 573 20 171 -9 338 -90 508 -56 117 -116 199 -205 283 -81
75 -133 111 -235 162 -45 22 -81 43 -81 47 0 3 13 44 30 92 95 278 52 580
-115 816 -214 302 -614 443 -968 340 -127 -37 -127 -37 -103 33 50 142 78 392
65 582 -43 630 -484 1186 -1084 1369 -423 128 -886 76 -1246 -141 -46 -28 -96
-58 -110 -66 -26 -16 -28 -15 -79 31 -123 110 -297 193 -474 223 -237 42 -519
-25 -714 -170 -34 -25 -65 -46 -70 -46 -4 0 -27 31 -52 68 -63 95 -202 231
-302 296 -149 97 -268 142 -467 176 -138 23 -162 23 -301 -1z"/>
</g>
</svg>
